<?xml version="1.0" encoding="utf-8"?>
<!-- Generator: Adobe Illustrator 21.0.2, SVG Export Plug-In . SVG Version: 6.00 Build 0)  -->
<svg version="1.1" id="Layer_1" xmlns="http://www.w3.org/2000/svg" xmlns:xlink="http://www.w3.org/1999/xlink" x="0px" y="0px"
	 viewBox="0 0 35.7 36.3" style="enable-background:new 0 0 35.7 36.3;" xml:space="preserve">
<style type="text/css">
	.st0{fill:#FFFFFF;}
</style>
<path class="st0" d="M33.3,3L33.3,3c-1-1-2.7-1-3.7,0L17.9,14.7L6.2,3c-1-1-2.7-1-3.7,0v0c-1,1-1,2.7,0,3.7L17.8,22c0,0,0.1,0,0.1,0
	c0,0,0.1,0,0.1,0L33.3,6.7C34.4,5.6,34.4,4,33.3,3z"/>
<path class="st0" d="M33.3,16.1L33.3,16.1c-1-1-2.7-1-3.7,0L17.9,27.8L6.2,16.1c-1-1-2.7-1-3.7,0v0c-1,1-1,2.7,0,3.7l15.3,15.3
	c0,0,0.1,0,0.1,0c0,0,0.1,0,0.1,0l15.3-15.3C34.4,18.7,34.4,17.1,33.3,16.1z"/>
</svg>
